<?xml version="1.0" encoding="utf-8"?>
<!-- Generator: Adobe Illustrator 26.3.1, SVG Export Plug-In . SVG Version: 6.00 Build 0)  -->
<svg version="1.0" id="Layer_1" xmlns="http://www.w3.org/2000/svg" xmlns:xlink="http://www.w3.org/1999/xlink" x="0px" y="0px"
	 viewBox="0 0 100 100" style="enable-background:new 0 0 100 100;" xml:space="preserve">
<style type="text/css">
	.st0{fill:#FFFFFF;}
	.st1{fill:url(#SVGID_1_);}
	.st2{fill:url(#SVGID_00000177456493286235443250000016790073622640383131_);}
	.st3{fill:url(#SVGID_00000022549316811243917450000004866854079261786255_);}
	.st4{fill:url(#SVGID_00000150063633709277684180000001408850111522097807_);}
	.st5{fill:none;}
	.st6{fill:url(#SVGID_00000057852532247908779020000007594887163980501951_);}
	.st7{fill:url(#SVGID_00000006675386465247095330000015535052645755321529_);}
	.st8{fill:url(#SVGID_00000005249915906992371390000010461894286258320007_);}
	.st9{fill:url(#SVGID_00000030453552064315013330000011553263675520095661_);}
	.st10{fill:url(#SVGID_00000111173555544949852840000002426116594697715345_);}
	.st11{fill:url(#SVGID_00000172407308386129843100000011532081067426799784_);}
	.st12{fill:url(#SVGID_00000075142125337136736980000001122165538571347860_);}
	.st13{fill:url(#SVGID_00000037658671136671242690000001387169792435714700_);}
	.st14{fill:url(#SVGID_00000094582751451820483530000011771448619783999381_);}
	.st15{fill:url(#SVGID_00000163050399413515018640000011959399560347792314_);}
	.st16{fill:#FF9933;}
</style>
<circle class="st0" cx="50" cy="50" r="48.91"/>
<g>
	<g>
		
			<linearGradient id="SVGID_1_" gradientUnits="userSpaceOnUse" x1="2486.6624" y1="2383.5996" x2="2486.6624" y2="2365.4766" gradientTransform="matrix(0 1 -1 0 2411.7356 -2446.0715)">
			<stop  offset="0" style="stop-color:#88C540"/>
			<stop  offset="1" style="stop-color:#046937"/>
		</linearGradient>
		<path class="st1" d="M47.1,40.51c-6.43-5.21-11.9-7.33-15.2-5.84c-2.25,1.01-3.26,3.67-3.26,5.84c0,2.26,1.03,4.99,3.34,6.02
			c1.82,0.81,4.29,0.51,7.21-0.81c2.19-1.02,4.64-2.6,7.26-4.71L47.1,40.51z M45.05,40.5c-2.3,1.8-4.44,3.16-6.39,4.07
			c-2.59,1.17-4.72,1.44-6.17,0.8c-1.78-0.79-2.59-3.08-2.59-4.86c0-1.71,0.79-3.91,2.51-4.69C34.99,34.66,39.65,36.4,45.05,40.5z"
			/>
		
			<linearGradient id="SVGID_00000123431317949742459700000010210691165958785464_" gradientUnits="userSpaceOnUse" x1="2486.6624" y1="-1805.5959" x2="2486.6624" y2="-1823.7195" gradientTransform="matrix(0 1 1 0 1877.1729 -2446.0715)">
			<stop  offset="0" style="stop-color:#88C540"/>
			<stop  offset="1" style="stop-color:#046937"/>
		</linearGradient>
		<path style="fill:url(#SVGID_00000123431317949742459700000010210691165958785464_);" d="M53.26,41.01
			c2.62,2.11,5.06,3.69,7.26,4.71c2.92,1.32,5.39,1.62,7.21,0.81c2.31-1.03,3.34-3.76,3.34-6.02c0-2.18-1.01-4.83-3.26-5.84
			c-3.3-1.49-8.77,0.63-15.2,5.84L53.26,41.01z M67.29,35.81c1.73,0.78,2.51,2.98,2.51,4.69c0,1.79-0.81,4.07-2.59,4.86
			c-1.44,0.64-3.58,0.36-6.17-0.8c-1.95-0.9-4.09-2.27-6.39-4.07C60.06,36.4,64.72,34.66,67.29,35.81z"/>
		
			<linearGradient id="SVGID_00000079483849301195472020000002709447388760034436_" gradientUnits="userSpaceOnUse" x1="3919.52" y1="83.1233" x2="3919.52" y2="65.2876" gradientTransform="matrix(-1 0 0 -1 3969.5244 102)">
			<stop  offset="0" style="stop-color:#88C540"/>
			<stop  offset="1" style="stop-color:#046937"/>
		</linearGradient>
		<path style="fill:url(#SVGID_00000079483849301195472020000002709447388760034436_);" d="M50.08,37.54
			c5.13-6.33,7.22-11.71,5.75-14.96c-1-2.21-3.61-3.2-5.75-3.2c-2.22,0-4.91,1.02-5.92,3.28c-0.8,1.79-0.5,4.22,0.8,7.1
			c1,2.16,2.56,4.57,4.63,7.14L50.08,37.54z M50.08,35.53c-1.77-2.26-3.11-4.37-4-6.29c-1.15-2.55-1.42-4.65-0.79-6.07
			c0.78-1.75,3.03-2.55,4.79-2.55c1.69,0,3.85,0.77,4.62,2.47C55.84,25.62,54.12,30.21,50.08,35.53z"/>
		
			<linearGradient id="SVGID_00000123431866327211021860000018306642026753901225_" gradientUnits="userSpaceOnUse" x1="3919.5178" y1="712.1509" x2="3919.5178" y2="694.3155" gradientTransform="matrix(-1 0 0 1 3969.5244 -649.8936)">
			<stop  offset="0" style="stop-color:#88C540"/>
			<stop  offset="1" style="stop-color:#046937"/>
		</linearGradient>
		<path style="fill:url(#SVGID_00000123431866327211021860000018306642026753901225_);" d="M49.59,44.23
			c-2.08,2.57-3.63,4.98-4.63,7.14c-1.3,2.88-1.59,5.31-0.8,7.1c1.01,2.27,3.7,3.28,5.92,3.28c2.14,0,4.75-0.99,5.75-3.2
			c1.47-3.25-0.62-8.63-5.75-14.96L49.59,44.23z M54.69,58.04c-0.77,1.7-2.93,2.47-4.62,2.47c-1.76,0-4.01-0.8-4.79-2.55
			c-0.63-1.42-0.36-3.53,0.79-6.07c0.89-1.92,2.23-4.02,4-6.29C54.12,50.92,55.84,55.51,54.69,58.04z"/>
		<g>
			<line class="st5" x1="50.61" y1="37.19" x2="50.53" y2="37.25"/>
			
				<linearGradient id="SVGID_00000178183724300297687620000001916227924174102719_" gradientUnits="userSpaceOnUse" x1="3919.3645" y1="63.6929" x2="3944.9944" y2="63.6929" gradientTransform="matrix(-1 0 0 -1 3969.5244 102)">
				<stop  offset="0" style="stop-color:#2AB34B"/>
				<stop  offset="0.5" style="stop-color:#88C540"/>
				<stop  offset="1" style="stop-color:#046937"/>
			</linearGradient>
			<path style="fill:url(#SVGID_00000178183724300297687620000001916227924174102719_);" d="M46.53,40.3
				c-6.13-4.97-11.34-6.99-14.49-5.57c-2.14,0.97-3.1,3.49-3.1,5.57c0,2.15,0.98,4.76,3.18,5.74c1.73,0.77,4.09,0.48,6.88-0.77
				c-1.38,0.64-2.66,1.05-3.8,1.21l0,0c0,0-6.97,2.15-10.66-5.66c-0.01-0.18-0.01-0.35-0.01-0.52c0-3.24,1.5-7.7,5.71-9.6
				c6.22-2.8,14.05,1.92,19.92,6.85L46.53,40.3z"/>
			
				<linearGradient id="SVGID_00000031902849699484128840000002492625358293745318_" gradientUnits="userSpaceOnUse" x1="3894.0444" y1="59.427" x2="3919.6743" y2="59.427" gradientTransform="matrix(-1 0 0 -1 3969.5244 102)">
				<stop  offset="0" style="stop-color:#2AB34B"/>
				<stop  offset="0.5" style="stop-color:#88C540"/>
				<stop  offset="1" style="stop-color:#046937"/>
			</linearGradient>
			<path style="fill:url(#SVGID_00000031902849699484128840000002492625358293745318_);" d="M53.47,40.58
				c6.13,4.97,11.34,6.99,14.49,5.57c2.14-0.97,3.1-3.49,3.1-5.57c0-2.15-0.98-4.76-3.18-5.74c-1.73-0.77-4.09-0.48-6.88,0.77
				c1.38-0.64,2.66-1.05,3.8-1.21l0,0c0,0,6.97-2.15,10.66,5.66c0.01,0.18,0.02,0.35,0.02,0.52c0,3.24-1.5,7.7-5.71,9.6
				c-6.22,2.8-14.05-1.92-19.92-6.85L53.47,40.58z"/>
		</g>
		<g>
			<line class="st5" x1="46.75" y1="39.83" x2="46.81" y2="39.91"/>
			
				<linearGradient id="SVGID_00000086667300002665597700000003639528387383863439_" gradientUnits="userSpaceOnUse" x1="3913.2134" y1="48.905" x2="3930.1013" y2="48.905" gradientTransform="matrix(-1 0 0 -1 3969.5244 102)">
				<stop  offset="0" style="stop-color:#88C540"/>
				<stop  offset="1" style="stop-color:#046937"/>
			</linearGradient>
			<path style="fill:url(#SVGID_00000086667300002665597700000003639528387383863439_);" d="M49.86,43.91
				c-4.97,6.13-6.99,11.34-5.57,14.49c0.97,2.14,3.49,3.1,5.57,3.1c2.15,0,4.76-0.98,5.74-3.18c0.77-1.73,0.48-4.09-0.77-6.88
				c0.64,1.38,1.05,2.66,1.21,3.8l0,0c0,0,2.15,6.97-5.66,10.66c-0.18,0.01-0.35,0.01-0.52,0.01c-3.24,0-7.7-1.5-9.6-5.71
				c-2.8-6.22,1.92-14.05,6.85-19.92L49.86,43.91z"/>
			
				<linearGradient id="SVGID_00000121242160224936893100000016986100100350988452_" gradientUnits="userSpaceOnUse" x1="3908.9475" y1="74.215" x2="3925.8354" y2="74.215" gradientTransform="matrix(-1 0 0 -1 3969.5244 102)">
				<stop  offset="0" style="stop-color:#88C540"/>
				<stop  offset="1" style="stop-color:#046937"/>
			</linearGradient>
			<path style="fill:url(#SVGID_00000121242160224936893100000016986100100350988452_);" d="M50.14,36.97
				c4.97-6.13,6.99-11.34,5.57-14.49c-0.97-2.14-3.49-3.1-5.57-3.1c-2.15,0-4.76,0.98-5.74,3.18c-0.77,1.73-0.48,4.09,0.77,6.88
				c-0.64-1.38-1.05-2.66-1.21-3.8l0,0c0,0-2.15-6.97,5.66-10.66c0.18-0.01,0.35-0.01,0.52-0.01c3.24,0,7.7,1.5,9.6,5.71
				c2.8,6.22-1.92,14.05-6.85,19.92L50.14,36.97z"/>
		</g>
		
			<linearGradient id="SVGID_00000092438076672535892930000009192303718997380270_" gradientUnits="userSpaceOnUse" x1="26.8322" y1="52.1289" x2="71.3835" y2="70.2648" gradientTransform="matrix(1 0 0 -1 0 102)">
			<stop  offset="0" style="stop-color:#D65627"/>
			<stop  offset="0.25" style="stop-color:#F7911E"/>
			<stop  offset="0.3511" style="stop-color:#F1D614"/>
			<stop  offset="0.3593" style="stop-color:#F3D832"/>
			<stop  offset="0.3896" style="stop-color:#F6E17A"/>
			<stop  offset="0.4182" style="stop-color:#F9EAA7"/>
			<stop  offset="0.4444" style="stop-color:#FBF1CB"/>
			<stop  offset="0.4676" style="stop-color:#FDF8E5"/>
			<stop  offset="0.4869" style="stop-color:#FFFDF6"/>
			<stop  offset="0.5" style="stop-color:#FFFFFF"/>
			<stop  offset="0.5293" style="stop-color:#FFFEFA"/>
			<stop  offset="0.5515" style="stop-color:#FEFBF1"/>
			<stop  offset="0.5714" style="stop-color:#FDF7E3"/>
			<stop  offset="0.5899" style="stop-color:#FBF3D1"/>
			<stop  offset="0.6075" style="stop-color:#FAEEBA"/>
			<stop  offset="0.6244" style="stop-color:#F8E89D"/>
			<stop  offset="0.6407" style="stop-color:#F6E27B"/>
			<stop  offset="0.6562" style="stop-color:#F4DB4C"/>
			<stop  offset="0.668" style="stop-color:#F1D614"/>
			<stop  offset="0.7918" style="stop-color:#F7911E"/>
			<stop  offset="1" style="stop-color:#F05023"/>
		</linearGradient>
		<path style="fill:url(#SVGID_00000092438076672535892930000009192303718997380270_);" d="M69.89,30.68
			c4.14,1.86,5.6,6.24,5.6,9.42c-3.69-7.85-10.68-5.69-10.68-5.69l0,0c-2.88,0.41-6.58,2.36-10.72,5.7l-4.7,3.58
			c-5.72,4.75-13.26,9.23-19.28,6.51c-4.14-1.87-5.6-6.24-5.6-9.42c3.69,7.85,10.68,5.69,10.68,5.69l0,0
			c2.88-0.41,6.58-2.36,10.72-5.7l0.14-0.1l4.56-3.48C56.33,32.44,63.87,27.96,69.89,30.68z"/>
		
			<linearGradient id="SVGID_00000010274727841170654000000003250432854700301704_" gradientUnits="userSpaceOnUse" x1="40.0873" y1="78.3204" x2="60.0631" y2="44.5455" gradientTransform="matrix(1 0 0 -1 0 102)">
			<stop  offset="0" style="stop-color:#D65627"/>
			<stop  offset="0.1902" style="stop-color:#F7911E"/>
			<stop  offset="0.3178" style="stop-color:#F1D614"/>
			<stop  offset="0.3321" style="stop-color:#F3D93C"/>
			<stop  offset="0.3677" style="stop-color:#F6E27F"/>
			<stop  offset="0.4016" style="stop-color:#F9EBAB"/>
			<stop  offset="0.4326" style="stop-color:#FBF2CD"/>
			<stop  offset="0.4604" style="stop-color:#FDF8E6"/>
			<stop  offset="0.4838" style="stop-color:#FFFDF6"/>
			<stop  offset="0.5" style="stop-color:#FFFFFF"/>
			<stop  offset="0.5266" style="stop-color:#FCF7E1"/>
			<stop  offset="0.5852" style="stop-color:#F8E9A1"/>
			<stop  offset="0.671" style="stop-color:#F2D725"/>
			<stop  offset="0.678" style="stop-color:#F1D614"/>
			<stop  offset="0.7379" style="stop-color:#F3B11C"/>
			<stop  offset="0.7858" style="stop-color:#F7911E"/>
			<stop  offset="1" style="stop-color:#F05023"/>
		</linearGradient>
		<path style="fill:url(#SVGID_00000010274727841170654000000003250432854700301704_);" d="M40.24,20.55
			c1.86-4.14,6.24-5.6,9.42-5.6c-7.85,3.69-5.69,10.68-5.69,10.68l0,0c0.41,2.88,2.36,6.58,5.7,10.72l3.58,4.7
			c4.75,5.72,9.23,13.26,6.51,19.28c-1.87,4.14-6.24,5.6-9.42,5.6c7.85-3.69,5.69-10.68,5.69-10.68l0,0
			c-0.41-2.88-2.36-6.58-5.7-10.72l-0.1-0.14l-3.48-4.56C42,34.11,37.52,26.57,40.24,20.55z"/>
		
			<radialGradient id="SVGID_00000147215290892874997770000007839141737613553038_" cx="50" cy="61.565" r="3.0074" gradientTransform="matrix(1 0 0 -1 0 102)" gradientUnits="userSpaceOnUse">
			<stop  offset="0" style="stop-color:#CDCCCC"/>
			<stop  offset="0.2571" style="stop-color:#DADADA;stop-opacity:0.9122"/>
			<stop  offset="0.5858" style="stop-color:#F3F4F4;stop-opacity:0.8"/>
			<stop  offset="0.8883" style="stop-color:#FFFFFF;stop-opacity:0"/>
		</radialGradient>
		<path style="fill:url(#SVGID_00000147215290892874997770000007839141737613553038_);" d="M56.03,55.25L56.03,55.25
			c-0.41-2.88-2.36-6.58-5.7-10.72l-0.1-0.14l-0.65-0.85l-0.19,0.14c-5.72,4.75-13.26,9.23-19.28,6.51l5.08-3.73l0,0
			c2.88-0.41,6.58-2.36,10.72-5.7l0.14-0.1l0.85-0.65l-0.15-0.19C42,34.1,37.52,26.56,40.24,20.54l3.73,5.08l0,0
			c0.41,2.88,2.36,6.58,5.7,10.72l0.75,0.99l0.19-0.14c5.72-4.75,13.26-9.23,19.28-6.51l-5.08,3.73l0,0
			c-0.05,0.01-0.11,0.02-0.16,0.02c-2.86,0.45-6.5,2.4-10.56,5.68l-0.99,0.75l0.14,0.19c4.75,5.72,9.23,13.26,6.51,19.28
			L56.03,55.25z"/>
	</g>
	<g>
		<g>
			
				<linearGradient id="SVGID_00000182494365073808168030000015181085483464616616_" gradientUnits="userSpaceOnUse" x1="40.465" y1="21.6811" x2="40.465" y2="32.215" gradientTransform="matrix(1 0 0 -1 0 102)">
				<stop  offset="0" style="stop-color:#D65627"/>
				<stop  offset="0.5" style="stop-color:#F7911E"/>
				<stop  offset="1" style="stop-color:#F05023"/>
			</linearGradient>
			<path style="fill:url(#SVGID_00000182494365073808168030000015181085483464616616_);" d="M38.94,72.42h-3.26v-2.65h9.57
				l-0.79,2.65h-2.49v8.27h-3.03V72.42z"/>
			
				<linearGradient id="SVGID_00000136406568627952847810000003779875544134288518_" gradientUnits="userSpaceOnUse" x1="50.035" y1="21.6811" x2="50.035" y2="32.215" gradientTransform="matrix(1 0 0 -1 0 102)">
				<stop  offset="0" style="stop-color:#D65627"/>
				<stop  offset="0.5" style="stop-color:#F7911E"/>
				<stop  offset="1" style="stop-color:#F05023"/>
			</linearGradient>
			<path style="fill:url(#SVGID_00000136406568627952847810000003779875544134288518_);" d="M48.51,72.42h-3.26l0.79-2.65h8.78v2.65
				h-3.28v8.27h-3.03C48.51,80.69,48.51,72.42,48.51,72.42z"/>
			
				<linearGradient id="SVGID_00000144305104081639060040000016773978761815772830_" gradientUnits="userSpaceOnUse" x1="60.045" y1="21.6811" x2="60.045" y2="32.215" gradientTransform="matrix(1 0 0 -1 0 102)">
				<stop  offset="0" style="stop-color:#D65627"/>
				<stop  offset="0.5" style="stop-color:#F7911E"/>
				<stop  offset="1" style="stop-color:#F05023"/>
			</linearGradient>
			<path style="fill:url(#SVGID_00000144305104081639060040000016773978761815772830_);" d="M55.43,69.77h4.7
				c2.75,0,4.53,1.42,4.53,3.82v0.03c0,2.59-1.98,3.95-4.68,3.95h-1.51v3.12h-3.03V69.77H55.43z M59.91,75.2
				c1.06,0,1.73-0.58,1.73-1.44v-0.03c0-0.94-0.67-1.42-1.75-1.42h-1.44v2.89H59.91z"/>
		</g>
		<g>
			<path class="st16" d="M36.73,83.44c-0.7-0.15-0.75-0.31-0.75-0.52c0-0.26,0.27-0.46,0.62-0.46c0.28,0,0.55,0.1,0.78,0.28
				c0.03,0.02,0.06,0.03,0.09,0.03c0.03,0,0.06-0.02,0.08-0.05l0.08-0.11c0.04-0.05,0.03-0.13-0.02-0.17
				c-0.31-0.24-0.63-0.35-1.01-0.35c-0.58,0-1.01,0.36-1.01,0.85c0,0.58,0.5,0.76,1.03,0.86c0.7,0.15,0.75,0.31,0.75,0.52
				c0,0.28-0.27,0.47-0.65,0.47c-0.36,0-0.65-0.12-0.92-0.38c-0.02-0.02-0.06-0.03-0.09-0.03c-0.03,0-0.06,0.02-0.09,0.04l-0.09,0.1
				c-0.05,0.05-0.04,0.13,0.01,0.18c0.35,0.32,0.74,0.47,1.17,0.47c0.62,0,1.04-0.36,1.04-0.88C37.75,83.73,37.23,83.54,36.73,83.44
				z"/>
			<path class="st16" d="M63.68,83.44c-0.7-0.15-0.75-0.31-0.75-0.52c0-0.26,0.27-0.46,0.62-0.46c0.28,0,0.55,0.1,0.78,0.28
				c0.03,0.02,0.06,0.03,0.09,0.03c0.03,0,0.06-0.02,0.08-0.05l0.08-0.11c0.04-0.05,0.03-0.13-0.03-0.17
				c-0.31-0.24-0.63-0.35-1.01-0.35c-0.58,0-1.01,0.36-1.01,0.85c0,0.58,0.5,0.76,1.03,0.86c0.7,0.15,0.75,0.31,0.75,0.52
				c0,0.28-0.27,0.47-0.66,0.47c-0.36,0-0.65-0.12-0.92-0.38c-0.02-0.02-0.06-0.03-0.09-0.03c-0.03,0-0.07,0.02-0.09,0.04l-0.09,0.1
				c-0.05,0.05-0.04,0.13,0.01,0.18c0.35,0.31,0.74,0.47,1.17,0.47c0.62,0,1.04-0.36,1.04-0.88C64.71,83.73,64.18,83.54,63.68,83.44
				z"/>
			<path class="st16" d="M40.48,82.13h-0.13c-0.07,0-0.12,0.06-0.12,0.12v1.56c0,0.63-0.3,0.97-0.85,0.97
				c-0.56,0-0.86-0.35-0.86-0.99v-1.55c0-0.07-0.06-0.12-0.12-0.12h-0.13c-0.07,0-0.12,0.06-0.12,0.12v1.56
				c0,0.84,0.47,1.35,1.24,1.35c0.76,0,1.23-0.52,1.23-1.37v-1.55C40.6,82.19,40.55,82.13,40.48,82.13z"/>
			<path class="st16" d="M42.24,82.13h-0.98c-0.07,0-0.12,0.06-0.12,0.12c0,0.02,0,0.03,0.01,0.05V85c0,0.07,0.06,0.12,0.12,0.12
				h0.13c0.07,0,0.12-0.06,0.12-0.12v-0.92h0.69c0.73,0,1.19-0.38,1.19-0.99C43.4,82.5,42.96,82.13,42.24,82.13z M41.52,82.51h0.71
				c0.24,0,0.79,0.06,0.79,0.6c0,0.37-0.3,0.59-0.81,0.59h-0.69V82.51z"/>
			<path class="st16" d="M44.86,82.13h-0.98c-0.07,0-0.12,0.06-0.12,0.12c0,0.02,0,0.03,0.01,0.05V85c0,0.07,0.06,0.12,0.12,0.12
				h0.13c0.07,0,0.12-0.06,0.12-0.12v-0.92h0.69c0.73,0,1.19-0.38,1.19-0.99C46.02,82.5,45.58,82.13,44.86,82.13z M44.83,83.71h-0.7
				v-1.19h0.71c0.24,0,0.79,0.06,0.79,0.6C45.63,83.48,45.33,83.71,44.83,83.71z"/>
			<path class="st16" d="M48.28,84.75h-1.52v-2.5c0-0.07-0.06-0.12-0.12-0.12H46.5c-0.07,0-0.12,0.06-0.12,0.12V85
				c0,0.07,0.06,0.12,0.12,0.12h1.78c0.07,0,0.12-0.06,0.12-0.12v-0.12C48.4,84.81,48.35,84.75,48.28,84.75z"/>
			<path class="st16" d="M50.79,84.75H49.1V83.8h1.49c0.07,0,0.12-0.06,0.12-0.12v-0.12c0-0.07-0.06-0.12-0.12-0.12H49.1V82.5h1.67
				c0.07,0,0.12-0.06,0.12-0.12v-0.12c0-0.07-0.06-0.12-0.12-0.12h-1.93c-0.07,0-0.12,0.06-0.12,0.12V85c0,0.07,0.06,0.12,0.12,0.12
				h1.95c0.07,0,0.12-0.06,0.12-0.12v-0.12C50.92,84.81,50.86,84.75,50.79,84.75z"/>
			<path class="st16" d="M54.02,82.13h-0.13c-0.04,0-0.08,0.02-0.1,0.05l-1.06,1.52l-1.06-1.52c-0.02-0.03-0.06-0.05-0.1-0.05h-0.13
				c-0.07,0-0.12,0.06-0.12,0.12c0,0.02,0,0.03,0.01,0.05v2.7c0,0.07,0.06,0.12,0.12,0.12h0.13c0.07,0,0.12-0.06,0.12-0.12V82.9
				l0.92,1.32c0.05,0.07,0.17,0.07,0.21,0l0.92-1.31V85c0,0.07,0.06,0.12,0.12,0.12h0.13c0.07,0,0.12-0.06,0.12-0.12v-2.74
				C54.14,82.19,54.09,82.13,54.02,82.13z"/>
			<path class="st16" d="M56.77,84.75h-1.69V83.8h1.5c0.07,0,0.12-0.06,0.12-0.12v-0.12c0-0.07-0.06-0.12-0.12-0.12h-1.5V82.5h1.67
				c0.07,0,0.12-0.06,0.12-0.12v-0.12c0-0.07-0.06-0.12-0.12-0.12h-1.93c-0.07,0-0.12,0.06-0.12,0.12V85c0,0.07,0.06,0.12,0.12,0.12
				h1.95c0.07,0,0.12-0.06,0.12-0.12v-0.12C56.89,84.81,56.84,84.75,56.77,84.75z"/>
			<path class="st16" d="M59.68,82.13h-0.13c-0.07,0-0.12,0.06-0.12,0.12v2.15l-1.78-2.23c-0.02-0.03-0.06-0.05-0.1-0.05h-0.13
				c-0.07,0-0.12,0.06-0.12,0.12V85c0,0.07,0.06,0.12,0.12,0.12h0.13c0.07,0,0.12-0.06,0.12-0.12v-2.17l1.8,2.25
				c0.02,0.03,0.06,0.05,0.1,0.05h0.11c0.07,0,0.12-0.06,0.12-0.12v-2.74C59.8,82.19,59.75,82.13,59.68,82.13z"/>
			<path class="st16" d="M62.46,82.27c0-0.07-0.06-0.12-0.12-0.12h-2.09c-0.07,0-0.12,0.06-0.12,0.12v0.12
				c0,0.07,0.06,0.12,0.12,0.12h0.85v2.5c0,0.07,0.06,0.12,0.12,0.12h0.13c0.07,0,0.12-0.06,0.12-0.12v-2.5h0.86
				c0.07,0,0.12-0.06,0.12-0.12V82.27z"/>
		</g>
	</g>
</g>
</svg>
